<svg width="95" height="87" viewBox="0 0 95 87" fill="none" xmlns="http://www.w3.org/2000/svg">
<g clip-path="url(#clip0_28_40)">
<path d="M86.4612 86.9993C76.5969 79.9691 63.0856 75.6191 48.1683 75.6191C33.273 75.6191 19.7618 79.9691 9.89746 86.9993H86.4612Z" fill="#8A8A8A"/>
<path d="M90.7449 82.934C88.7896 83.1976 62.7338 82.934 62.7338 82.934L62.1187 80.2098L59.7459 69.4887C59.7459 69.4887 69.3466 69.972 68.7534 69.247C68.1603 68.544 67.1057 57.5153 61.7671 55.8456C56.4285 54.1759 48.168 53.9343 48.168 53.9343V32.9753L55.7914 27.8564C59.4823 32.1625 79.167 43.1253 81.5617 48.376C83.9563 53.6047 93.3593 66.9402 94.2161 72.1689C95.0949 77.4196 92.7002 82.6923 90.7449 82.934Z" fill="url(#paint0_linear_28_40)"/>
<path style="mix-blend-mode:multiply" d="M90.7453 82.934C88.79 83.1976 62.7342 82.934 62.7342 82.934L62.1191 80.2098C66.9523 80.0121 74.0265 79.6386 80.5295 79.0893C91.8218 78.1227 94.2165 72.1689 94.2165 72.1689C95.0953 77.4196 92.7006 82.6923 90.7453 82.934Z" fill="url(#paint1_linear_28_40)"/>
<path style="mix-blend-mode:multiply" d="M86.4612 69.8639C86.4612 69.8639 80.5734 57.0557 74.5977 53.7822L76.487 68.5018L86.4612 69.8639Z" fill="url(#paint2_linear_28_40)"/>
<path d="M74.5975 71.114C74.5975 71.114 82.8361 68.5656 90.2837 72.2564C90.2837 72.2564 88.3944 68.5216 80.4634 66.8959C80.4634 66.8959 75.4104 50.265 69.4347 49.496C63.459 48.7051 63.1514 72.2564 63.1514 72.2564L74.5975 71.114Z" fill="#00042D"/>
<path d="M38.6118 27.8564C34.9209 32.1625 15.2362 43.1253 12.8416 48.376C10.4469 53.6047 1.04394 66.9402 0.187131 72.1689C-0.691649 77.4196 1.70302 82.6923 3.65831 82.934C5.6136 83.1976 31.6694 82.934 31.6694 82.934L34.6573 69.4887C34.6573 69.4887 25.0566 69.972 25.6498 69.247C26.243 68.544 27.2975 57.5153 32.6361 55.8456C37.9747 54.1759 46.2352 53.9343 46.2352 53.9343V32.9753L38.6118 27.8564Z" fill="url(#paint3_linear_28_40)"/>
<path style="mix-blend-mode:multiply" d="M3.65831 82.934C5.6136 83.1976 31.6694 82.934 31.6694 82.934L32.2846 80.2098C27.4513 80.0121 20.3771 79.6386 13.8741 79.0893C2.5818 78.1227 0.187131 72.1689 0.187131 72.1689C-0.691649 77.4196 1.70302 82.6923 3.65831 82.934Z" fill="url(#paint4_linear_28_40)"/>
<path style="mix-blend-mode:multiply" d="M7.94141 69.8639C7.94141 69.8639 13.8293 57.0557 19.805 53.7822L17.9156 68.5018L7.94141 69.8639Z" fill="url(#paint5_linear_28_40)"/>
<path d="M20.5084 71.114C20.5084 71.114 12.2699 68.5656 4.82227 72.2564C4.82227 72.2564 6.71165 68.5216 14.6206 66.8959C14.6206 66.8959 19.6736 50.265 25.6713 49.496C31.647 48.7051 31.9326 72.2564 31.9326 72.2564L20.5084 71.114Z" fill="#00042D"/>
<path d="M66.9964 27.0671C66.7108 33.2844 65.6343 46.4002 61.2624 49.9593C57.989 52.6176 52.0572 50.9479 47.6193 50.9479C42.4345 50.9479 37.1838 53.4524 33.7126 49.9593C30.1975 46.4442 28.4839 32.5155 28.2422 27.0671C31.6475 19.7732 39.0512 14.6982 47.6193 14.6982C56.2094 14.6982 63.6131 19.7732 66.9964 27.0671Z" fill="url(#paint6_linear_28_40)"/>
<path style="mix-blend-mode:multiply" d="M29.0996 20.8925C29.0996 30.0318 31.4284 39.6105 33.2518 43.8506C35.0973 48.0907 41.2048 55.802 47.6419 56.9444C54.0789 58.0868 60.3842 48.7498 62.4054 43.2135C65.7008 34.2939 66.0084 19.6622 66.0084 19.6622C66.0084 19.6622 55.507 10.1054 45.6866 11.0062C35.8882 11.885 29.0996 20.8925 29.0996 20.8925Z" fill="url(#paint7_linear_28_40)"/>
<path d="M33.0752 18.6531C33.0752 25.7273 34.8987 33.131 36.3487 36.4045C37.7767 39.6999 41.8191 46.5544 47.619 46.5544C52.7379 46.5544 57.6152 40.2052 59.197 35.9431C61.7894 29.0228 62.031 17.6865 62.031 17.6865C62.031 17.6865 53.7925 10.3047 46.1032 10.9858C38.3919 11.6668 33.0752 18.6531 33.0752 18.6531Z" fill="#00042D"/>
<path d="M47.6197 0C40.4796 0 28.2207 14.7635 28.2207 26.0778C28.2207 26.4147 28.228 26.7442 28.2426 27.0664C31.6479 19.7726 39.0516 14.6976 47.6197 14.6976C56.2098 14.6976 63.6135 19.7726 66.9968 27.0664C67.0115 26.7442 67.0188 26.4147 67.0188 26.0778C67.0188 14.7635 55.0015 0 47.6197 0Z" fill="url(#paint8_linear_28_40)"/>
<path d="M70.9291 81.7474H24.3098C22.1129 81.7474 20.2674 80.0557 20.0917 77.8587L17.4553 47.5628C17.2356 45.0802 19.1909 42.9492 21.6735 42.9492H73.5654C76.07 42.9492 78.0033 45.0802 77.8056 47.5628L75.1692 77.8587C74.9715 80.0557 73.148 81.7474 70.9291 81.7474Z" fill="#D6D6D6"/>
<path d="M70.9291 83.0667H24.3098C22.1129 83.0667 20.2674 81.3751 20.0917 79.1781L17.4553 48.8822C17.2356 46.3996 19.1909 44.2686 21.6735 44.2686H73.5654C76.07 44.2686 78.0033 46.3996 77.8056 48.8822L75.1692 79.1781C74.9715 81.3751 73.148 83.0667 70.9291 83.0667Z" fill="url(#paint9_linear_28_40)"/>
<g style="mix-blend-mode:multiply">
<path d="M24.2439 44.2686H21.6735C19.1909 44.2686 17.2356 46.3996 17.4553 48.8822L20.0917 79.1781C20.2674 81.3751 22.1129 83.0667 24.3098 83.0667H26.1333L24.2439 44.2686Z" fill="url(#paint10_linear_28_40)"/>
<path d="M73.5653 44.2686H70.9948L69.1055 83.0667H70.9289C73.1479 83.0667 74.9713 81.3751 75.169 79.1781L77.8054 48.8822C78.0031 46.3996 76.0698 44.2686 73.5653 44.2686Z" fill="url(#paint11_linear_28_40)"/>
</g>
</g>
<defs>
<linearGradient id="paint0_linear_28_40" x1="7.54088" y1="84.7043" x2="66.9593" y2="-24.9326" gradientUnits="userSpaceOnUse">
<stop stop-color="#BB62FF"/>
<stop offset="1" stop-color="#2B1A41"/>
</linearGradient>
<linearGradient id="paint1_linear_28_40" x1="69.876" y1="86.5847" x2="79.9849" y2="64.3645" gradientUnits="userSpaceOnUse">
<stop stop-color="#F4D63B" stop-opacity="0"/>
<stop offset="1" stop-color="#5C1CB2"/>
</linearGradient>
<linearGradient id="paint2_linear_28_40" x1="94.7392" y1="50.4317" x2="90.8768" y2="73.0543" gradientUnits="userSpaceOnUse">
<stop stop-color="#F4D63B" stop-opacity="0"/>
<stop offset="1" stop-color="#5C1CB2"/>
</linearGradient>
<linearGradient id="paint3_linear_28_40" x1="-23.0239" y1="52.1989" x2="18.1071" y2="-23.6948" gradientUnits="userSpaceOnUse">
<stop stop-color="#BB62FF"/>
<stop offset="1" stop-color="#2B1A41"/>
</linearGradient>
<linearGradient id="paint4_linear_28_40" x1="24.5276" y1="86.5847" x2="14.4188" y2="64.3645" gradientUnits="userSpaceOnUse">
<stop stop-opacity="0"/>
<stop offset="1" stop-color="#5C1CB2"/>
</linearGradient>
<linearGradient id="paint5_linear_28_40" x1="-0.336702" y1="50.4317" x2="3.52574" y2="73.0543" gradientUnits="userSpaceOnUse">
<stop stop-opacity="0"/>
<stop offset="1" stop-color="#5C1CB2"/>
</linearGradient>
<linearGradient id="paint6_linear_28_40" x1="-3.03268" y1="75.3936" x2="44.9422" y2="-13.1279" gradientUnits="userSpaceOnUse">
<stop stop-color="#BB62FF"/>
<stop offset="1" stop-color="#2B1A41"/>
</linearGradient>
<linearGradient id="paint7_linear_28_40" x1="14.2001" y1="55.264" x2="18.5475" y2="13.0333" gradientUnits="userSpaceOnUse">
<stop stop-opacity="0"/>
<stop offset="1" stop-color="#5C1CB2"/>
</linearGradient>
<linearGradient id="paint8_linear_28_40" x1="-2.75305" y1="75.5087" x2="44.6075" y2="-11.8791" gradientUnits="userSpaceOnUse">
<stop stop-color="#BB62FF"/>
<stop offset="1" stop-color="#2B1A41"/>
</linearGradient>
<linearGradient id="paint9_linear_28_40" x1="75.3267" y1="43.7409" x2="52.2377" y2="103.267" gradientUnits="userSpaceOnUse">
<stop stop-color="#868686"/>
<stop offset="1" stop-opacity="0.81"/>
</linearGradient>
<linearGradient id="paint10_linear_28_40" x1="109.753" y1="48.2998" x2="108.016" y2="85.0778" gradientUnits="userSpaceOnUse">
<stop stop-color="white" stop-opacity="0"/>
<stop offset="1" stop-color="#29242F"/>
</linearGradient>
<linearGradient id="paint11_linear_28_40" x1="161.315" y1="50.6408" x2="159.587" y2="87.2174" gradientUnits="userSpaceOnUse">
<stop stop-color="white" stop-opacity="0"/>
<stop offset="1" stop-color="#29242F"/>
</linearGradient>
<clipPath id="clip0_28_40">
<rect width="95" height="87" fill="white"/>
</clipPath>
</defs>
</svg>
