<svg width="30" height="30" viewBox="0 0 30 30" fill="none" xmlns="http://www.w3.org/2000/svg">
<path d="M14.9555 0.240479L1.06714 5.12813L3.26159 23.3243L14.9703 29.7595L26.7392 23.2374L28.9329 5.04165L14.9555 0.240479Z" fill="#B3B3B3"/>
<path d="M27.5475 6.09329L14.9231 1.78806V28.222L25.503 22.3666L27.5475 6.09329Z" fill="#A6120D"/>
<path d="M2.62524 6.17085L4.50634 22.4444L14.9229 28.222V1.78757L2.62524 6.17085Z" fill="#DD1B16"/>
<path d="M18.3982 15.8601L14.9232 17.4853H11.2603L9.53839 21.7917L6.33612 21.8512L14.9232 2.7478L18.3982 15.8601ZM18.0621 15.0419L14.9461 8.87296L12.39 14.9358H14.9229L18.0621 15.0419Z" fill="#F2F2F2"/>
<path d="M14.9229 2.7478L14.9459 8.87296L17.8463 14.9405H14.9292L14.9229 17.4813L18.9563 17.4853L20.8411 21.8517L23.9053 21.9084L14.9229 2.7478Z" fill="#B3B3B3"/>
</svg>
