<svg width="25" height="25" viewBox="0 0 25 25" fill="none" xmlns="http://www.w3.org/2000/svg">
<path d="M1.5625 1.5625H23.4375V23.4375H1.5625V1.5625Z" fill="#F5DE19"/>
<path d="M16.2571 18.6523C16.4437 19.0307 16.7334 19.3487 17.0927 19.5698C17.452 19.7909 17.8664 19.9062 18.2883 19.9023C19.1399 19.9023 19.6844 19.4766 19.6844 18.8867C19.6844 18.1836 19.125 17.932 18.1875 17.5219L17.6735 17.3016C16.1891 16.6695 15.2047 15.8781 15.2047 14.2047C15.2047 12.6633 16.3766 11.4891 18.2149 11.4891C18.8099 11.4462 19.4045 11.5794 19.9243 11.8721C20.4442 12.1649 20.8664 12.6041 21.1383 13.1352L19.5313 14.1625C19.4265 13.8992 19.2442 13.674 19.0086 13.5166C18.773 13.3592 18.4951 13.2772 18.2117 13.2812C18.0881 13.2689 17.9633 13.2824 17.8452 13.3209C17.727 13.3595 17.6183 13.4222 17.5257 13.5051C17.4332 13.588 17.3589 13.6893 17.3077 13.8025C17.2565 13.9156 17.2294 14.0383 17.2281 14.1625C17.2281 14.7789 17.6102 15.0289 18.4922 15.4125L19.0063 15.6328C20.7531 16.382 21.7406 17.1453 21.7406 18.8617C21.7406 20.7125 20.2867 21.7266 18.3344 21.7266C17.5738 21.7745 16.8155 21.6016 16.1509 21.2286C15.4862 20.8556 14.9436 20.2985 14.5883 19.6242L16.2571 18.6523ZM8.99534 18.8305C9.31799 19.4031 9.61174 19.8875 10.318 19.8875C10.993 19.8875 11.4196 19.6234 11.4196 18.5961V11.6062H13.475V18.6234C13.475 20.7516 12.225 21.7203 10.4055 21.7203C9.76233 21.7555 9.12358 21.5952 8.57322 21.2605C8.02285 20.9259 7.58663 20.4325 7.3219 19.8453L8.99534 18.8305Z" fill="black"/>
</svg>
