<svg width="30" height="30" viewBox="0 0 30 30" fill="none" xmlns="http://www.w3.org/2000/svg">
<g clip-path="url(#clip0_10_284)">
<path d="M17.8711 0.0585938L20.9318 0.07875C20.9895 0.123516 21.0361 0.152812 21.0856 0.174844C21.6403 0.425625 22.2417 0.605156 22.7416 0.938438C24.191 1.90172 25.6064 2.9168 27.0209 3.93141C27.6783 4.4018 28.3263 4.89164 28.9324 5.42437C29.3829 5.82 29.5852 6.38133 29.5863 6.97992L29.5852 25.8169C29.5845 26.0796 29.5395 26.3498 29.4663 26.6025C29.134 27.7542 28.3969 28.5424 27.237 28.8502C26.6252 29.0121 25.9791 29.0625 25.3446 29.1148C24.3549 29.197 23.3616 29.2373 22.3699 29.2969L20.494 29.4141L17.4902 29.5908L15.6436 29.7061L12.6106 29.8819L11.0431 29.9461C10.9927 29.9487 10.946 30.0192 10.8984 30.0586C9.70548 30.0586 8.51345 30.0586 7.3104 30.0394C7.25274 29.9937 7.20892 29.9569 7.15759 29.9423C6.43056 29.7316 5.82095 29.3299 5.3522 28.7466C4.70298 27.9401 4.0861 27.1087 3.46173 26.283C2.69438 25.2684 1.90712 24.2688 1.18196 23.2252C0.755736 22.6153 0.527441 21.8891 0.528057 21.1451C0.526013 15.5817 0.526716 10.0184 0.530166 4.455C0.530166 4.29469 0.558291 4.13273 0.585947 3.97336C0.877041 2.26055 2.14501 1.34672 3.65298 1.17727C4.43579 1.08937 5.22399 1.05 6.01056 0.997969L8.08946 0.877969L8.98314 0.819375L11.6784 0.586875L13.1726 0.469687L15.6474 0.293906L17.7263 0.171094C17.7769 0.167578 17.8235 0.0979687 17.8711 0.0585938ZM6.08087 26.7619C6.20556 26.9238 6.34454 27.0776 6.45353 27.2498C6.98181 28.0765 7.73907 28.3767 8.70118 28.3127L15.2189 27.9246L22.5539 27.4814L26.2059 27.2461C27.2883 27.1591 27.8109 26.5741 27.832 25.4883V25.2539L27.8402 7.47352C27.8412 6.93797 27.6563 6.56344 27.2278 6.26414L22.0659 2.62664C21.2356 2.02242 20.3541 1.74047 19.3331 1.82109L13.5525 2.24859L7.50821 2.69438L3.71438 2.99016C2.94798 3.06047 2.4729 3.52922 2.33556 4.28109C2.30216 4.47302 2.28593 4.66754 2.28704 4.86234L2.27134 20.3878C2.26595 21.405 2.5772 22.2511 3.1861 23.0292L6.08087 26.7619Z" fill="white"/>
<path d="M6.06725 26.7462L3.18607 23.029C2.57717 22.2509 2.26592 21.405 2.27131 20.3878L2.28701 4.86234C2.28701 4.66828 2.30154 4.4714 2.33553 4.28109C2.47287 3.52945 2.94795 3.0607 3.71436 2.99015L7.50818 2.69437L13.5527 2.24859L19.3331 1.82109C20.354 1.74046 21.2355 2.02242 22.0659 2.62664C23.768 3.86531 25.5019 5.06015 27.2278 6.26414C27.6562 6.56343 27.8412 6.93796 27.8402 7.47351L27.832 25.2548V25.4892C27.8109 26.5741 27.2883 27.1591 26.2059 27.2461C24.9902 27.3441 23.7717 27.4073 22.5539 27.4814L15.2189 27.9244L8.70115 28.3127C7.73904 28.3767 6.98178 28.0765 6.4535 27.2498C6.34451 27.0776 6.20553 26.9238 6.06725 26.7462ZM7.56865 15.9668V23.8155L7.57053 25.2794C7.58318 25.9359 7.90475 26.2629 8.561 26.3004C8.72576 26.3095 8.8924 26.3039 9.05811 26.2938L14.5523 25.9699L25.0441 25.3702C25.698 25.3336 26.0001 25.0469 26.0613 24.3989C26.0733 24.2824 26.0695 24.1645 26.0695 24.0473L26.0704 8.93554C26.0704 8.84765 26.0733 8.75976 26.0679 8.67187C26.0285 8.07046 25.7702 7.82507 25.1726 7.85695L19.7653 8.16843C17.2326 8.31577 14.6999 8.46406 12.1673 8.61328L8.36881 8.84132C7.88459 8.87226 7.66568 9.08109 7.59256 9.55453C7.57525 9.68008 7.56757 9.80678 7.56959 9.93351L7.56865 15.9668ZM20.9683 3.6089C20.5097 3.36 20.0116 3.27749 19.4988 3.30585C18.7106 3.34898 17.9224 3.4139 17.134 3.47085L5.89592 4.28742C5.55631 4.31203 5.21482 4.33664 4.87967 4.39734C4.76717 4.41749 4.62514 4.53093 4.59045 4.63359C4.56467 4.70578 4.67834 4.85156 4.76154 4.93125C4.91553 5.07843 5.09295 5.20195 5.26076 5.33484C5.65897 5.6489 6.08272 5.93531 6.44811 6.28242C7.14115 6.94054 7.94764 7.09265 8.87154 7.02585L16.1454 6.56976L23.9758 6.10007C24.0473 6.09656 24.1188 6.07453 24.2761 6.04523C24.1324 5.89593 24.049 5.78156 23.9402 5.70093C23.5566 5.41761 23.1693 5.13931 22.7784 4.86609C22.1779 4.44297 21.5745 4.02389 20.9683 3.6089Z" fill="black"/>
<path d="M7.56865 15.9375L7.56958 9.93351C7.56958 9.80695 7.57333 9.67898 7.59255 9.55452C7.66568 9.08109 7.88458 8.87249 8.3688 8.84132L12.1673 8.61327L19.7653 8.16843L25.1723 7.85695C25.7702 7.82507 26.0285 8.07116 26.0676 8.67187C26.0733 8.75976 26.0704 8.84765 26.0704 8.93554L26.0695 24.0473L26.0613 24.3989C26.0001 25.0469 25.698 25.3336 25.0441 25.3701L14.5523 25.9699L9.0581 26.2938L8.56122 26.3004C7.90474 26.2629 7.58318 25.9359 7.57052 25.2804L7.56865 23.8155V15.9375ZM18.2951 15.953L15.2791 11.358C15.1739 11.1977 15.0705 11.1448 14.8765 11.1659L13.5909 11.2526L11.2261 11.4258C10.6448 11.479 10.2933 12.0255 10.4543 12.5923L11.7068 12.6994V22.8462L10.8536 23.0869C10.4754 23.1984 10.3134 23.5172 10.4407 23.9245L13.3254 23.7588L14.4616 23.6655C14.9515 23.5849 15.2151 23.2847 15.281 22.7948L13.7036 22.4351V14.8031L13.8208 14.9672L17.4461 20.6278C17.979 21.4545 18.5263 22.2718 19.0877 23.0794C19.4878 23.6536 20.0775 23.8294 20.7403 23.6864C21.1551 23.5978 21.5533 23.4293 21.9597 23.2983C22.1714 23.2296 22.2436 23.1033 22.2426 22.8661L22.2356 12.4364C22.2356 11.8268 22.2356 11.8268 22.8386 11.7051C23.4485 11.5823 23.6013 11.3388 23.4621 10.687L19.8176 10.9085C19.421 10.9369 19.1208 11.2683 19.0605 11.6538C19.031 11.8397 19.0694 11.9421 19.2918 11.955L20.3953 12.0769V19.1501C19.6964 18.0839 18.9963 17.0185 18.2951 15.9539V15.953ZM20.9883 3.61898C21.5865 4.03213 22.1831 4.44776 22.7779 4.86585C23.1689 5.13915 23.5563 5.41753 23.94 5.70093C24.0487 5.78155 24.1322 5.89593 24.2758 6.04523L23.9756 6.10007L16.1451 6.56976L8.8713 7.02585C7.9474 7.09265 7.14091 6.94054 6.44786 6.28241C6.08247 5.93554 5.65872 5.6489 5.26029 5.33484C5.09271 5.20195 4.91529 5.07843 4.7613 4.93101C4.6781 4.85132 4.56443 4.70601 4.59021 4.63335C4.6249 4.53093 4.76787 4.41749 4.87943 4.39734C5.21458 4.33687 5.55607 4.31202 5.89568 4.28741L17.134 3.47085L19.4988 3.30585C20.0114 3.27773 20.5094 3.35976 20.9883 3.61898Z" fill="white"/>
<path d="M18.3077 15.9703L20.3953 19.1501V12.0767L19.2921 11.9548C19.0695 11.9421 19.031 11.8397 19.0603 11.6538C19.1208 11.2683 19.4212 10.9369 19.8173 10.9085L23.4621 10.687C23.6013 11.3386 23.4485 11.5824 22.8387 11.7049C22.2354 11.8259 22.2354 11.8259 22.2354 12.4364L22.2427 22.8661C22.2436 23.1033 22.1714 23.2296 21.9598 23.2983L20.7403 23.6864C20.0775 23.8284 19.4878 23.6536 19.088 23.0794C18.5268 22.2716 17.9795 21.4543 17.4464 20.6278L13.8206 14.967C13.7951 14.9267 13.7658 14.8892 13.7034 14.8031V22.4351L15.281 22.7949C15.2152 23.2847 14.9515 23.5847 14.4616 23.6656C14.088 23.7267 13.7046 23.7359 13.3254 23.7588L10.4407 23.9245C10.3134 23.5172 10.4754 23.1984 10.8537 23.0869L11.7068 22.8462V12.6994L10.4543 12.5923C10.2933 12.0256 10.6448 11.479 11.2261 11.4258C12.0127 11.3524 12.8027 11.3077 13.5909 11.2528C14.0194 11.2235 14.4497 11.2125 14.8765 11.1659C15.0705 11.1448 15.1741 11.1977 15.2791 11.3581L18.3077 15.9703Z" fill="black"/>
</g>
<defs>
<clipPath id="clip0_10_284">
<rect width="30" height="30" fill="white"/>
</clipPath>
</defs>
</svg>
