<svg width="30" height="30" viewBox="0 0 30 30" fill="none" xmlns="http://www.w3.org/2000/svg">
<path d="M14.8573 2.87064C13.8677 2.87533 12.9232 2.95947 12.0916 3.10665C9.64241 3.53931 9.19803 4.44494 9.19803 6.11533V8.32103H14.9855V9.05626H7.02585C5.34397 9.05626 3.87116 10.0671 3.41038 11.9909C2.87881 14.1952 2.85538 15.571 3.41038 17.8727C3.82171 19.5863 4.80421 20.8069 6.48631 20.8069H8.47639V18.1627C8.47639 16.2523 10.129 14.5674 12.0919 14.5674H17.8727C19.4819 14.5674 20.7663 13.2422 20.7663 11.6264V6.11556C20.7663 4.54689 19.443 3.36869 17.8727 3.10689C16.878 2.94142 15.8465 2.86619 14.8573 2.87064ZM11.7274 4.64462C12.3251 4.64462 12.8135 5.1408 12.8135 5.75111C12.8135 6.35884 12.3253 6.85033 11.7274 6.85033C11.1274 6.85033 10.6415 6.35884 10.6415 5.75111C10.6413 5.1408 11.1274 4.64462 11.7274 4.64462Z" fill="url(#paint0_linear_18_9)"/>
<path d="M21.488 9.05626V11.6264C21.488 13.6186 19.7986 15.2956 17.8725 15.2956H12.0917C10.5082 15.2956 9.19806 16.651 9.19806 18.2367V23.7481C9.19806 25.3163 10.5617 26.239 12.0917 26.6888C13.9235 27.2271 15.6804 27.3246 17.8725 26.6888C19.3294 26.2667 20.7661 25.4178 20.7661 23.7481V21.5421H14.9855V20.8067H23.6602C25.342 20.8067 25.9692 19.6336 26.5542 17.8725C27.1584 16.0596 27.1324 14.3161 26.5542 11.9906C26.1384 10.316 25.3446 9.05603 23.6602 9.05603L21.488 9.05626ZM18.2365 23.0126C18.8367 23.0126 19.3226 23.5041 19.3226 24.1123C19.3226 24.7221 18.8365 25.2183 18.2365 25.2183C17.6388 25.2183 17.1506 24.7221 17.1506 24.1123C17.1506 23.5041 17.6388 23.0126 18.2365 23.0126Z" fill="url(#paint1_linear_18_9)"/>
<path opacity="0.444" d="M22.8068 28.0305C22.8068 28.8609 19.3343 29.5343 15.0511 29.5343C10.7677 29.5343 7.29517 28.8609 7.29517 28.0305C7.29517 27.2001 10.7674 26.5266 15.0511 26.5266C19.3343 26.5266 22.8068 27.1997 22.8068 28.0305Z" fill="url(#paint2_radial_18_9)"/>
<defs>
<linearGradient id="paint0_linear_18_9" x1="2.42269" y1="3.56032" x2="15.7712" y2="14.9439" gradientUnits="userSpaceOnUse">
<stop stop-color="#5A9FD4"/>
<stop offset="1" stop-color="#306998"/>
</linearGradient>
<linearGradient id="paint1_linear_18_9" x1="20.7935" y1="22.0201" x2="16.0065" y2="15.3071" gradientUnits="userSpaceOnUse">
<stop stop-color="#FFD43B"/>
<stop offset="1" stop-color="#FFE873"/>
</linearGradient>
<radialGradient id="paint2_radial_18_9" cx="0" cy="0" r="1" gradientUnits="userSpaceOnUse" gradientTransform="translate(15.0198 27.9875) rotate(-90) scale(1.50429 6.61262)">
<stop stop-color="#B8B8B8" stop-opacity="0.498"/>
<stop offset="1" stop-color="#7F7F7F" stop-opacity="0"/>
</radialGradient>
</defs>
</svg>
