<svg width="30" height="30" viewBox="0 0 30 30" fill="none" xmlns="http://www.w3.org/2000/svg">
<path d="M3.51214 6.495C3.45659 4.89774 4.70089 3.42493 6.383 3.42493H23.6189C25.301 3.42493 26.5453 4.89774 26.4898 6.495C26.4364 8.02922 26.5057 10.0167 27.0059 11.6372C27.5077 13.2628 28.3538 14.2901 29.7396 14.4223V15.9192C28.3538 16.0514 27.5077 17.0787 27.0059 18.7043C26.5057 20.3248 26.4364 22.3123 26.4898 23.8465C26.5453 25.4438 25.301 26.9163 23.6189 26.9163H6.383C4.70089 26.9163 3.45659 25.4435 3.51214 23.8465C3.56557 22.3123 3.4962 20.3248 2.99581 18.7043C2.49425 17.0789 1.64581 16.0514 0.259949 15.9192V14.4223C1.64581 14.2903 2.49425 13.2628 2.99581 11.6372C3.4962 10.0167 3.56534 8.02922 3.51214 6.495Z" fill="url(#paint0_linear_18_24)"/>
<g filter="url(#filter0_d_18_24)">
<path d="M15.7288 21.5007C18.452 21.5007 20.093 20.1673 20.093 17.9681C20.093 16.3057 18.9222 15.1021 17.1836 14.9116V14.8423C18.4609 14.6346 19.4633 13.4484 19.4633 12.1236C19.4633 10.2361 17.9731 9.00656 15.7022 9.00656H10.5929V21.5007H15.7288ZM12.5799 10.5911H15.2233C16.6603 10.5911 17.4763 11.2318 17.4763 12.392C17.4763 13.6302 16.5272 14.3228 14.8063 14.3228H12.5799V10.5911ZM12.5799 19.9162V15.8034H15.2055C17.086 15.8034 18.0617 16.4961 18.0617 17.8468C18.0617 19.1975 17.1126 19.9162 15.3208 19.9162H12.5799Z" fill="url(#paint1_linear_18_24)"/>
</g>
<defs>
<filter id="filter0_d_18_24" x="10.1016" y="8.63807" width="10.4828" height="13.4768" filterUnits="userSpaceOnUse" color-interpolation-filters="sRGB">
<feFlood flood-opacity="0" result="BackgroundImageFix"/>
<feColorMatrix in="SourceAlpha" type="matrix" values="0 0 0 0 0 0 0 0 0 0 0 0 0 0 0 0 0 0 127 0" result="hardAlpha"/>
<feOffset dy="0.12283"/>
<feGaussianBlur stdDeviation="0.24566"/>
<feColorMatrix type="matrix" values="0 0 0 0 0 0 0 0 0 0 0 0 0 0 0 0 0 0 0.15 0"/>
<feBlend mode="normal" in2="BackgroundImageFix" result="effect1_dropShadow_18_24"/>
<feBlend mode="normal" in="SourceGraphic" in2="effect1_dropShadow_18_24" result="shape"/>
</filter>
<linearGradient id="paint0_linear_18_24" x1="4.64055" y1="4.04664" x2="30.4004" y2="24.4951" gradientUnits="userSpaceOnUse">
<stop stop-color="#9013FE"/>
<stop offset="1" stop-color="#6610F2"/>
</linearGradient>
<linearGradient id="paint1_linear_18_24" x1="11.4918" y1="9.82875" x2="17.2494" y2="19.5667" gradientUnits="userSpaceOnUse">
<stop stop-color="white"/>
<stop offset="1" stop-color="#F1E5FC"/>
</linearGradient>
</defs>
</svg>
