<svg width="30" height="30" viewBox="0 0 30 30" fill="none" xmlns="http://www.w3.org/2000/svg">
<path d="M15.0012 2.5C8.09498 2.5 2.50123 8.09375 2.50123 15C2.49896 17.6241 3.32342 20.1823 4.85754 22.3112C6.39166 24.4402 8.55748 26.0318 11.0475 26.86C11.6725 26.9688 11.9075 26.5937 11.9075 26.265C11.9075 25.9687 11.8912 24.985 11.8912 23.9375C8.75122 24.5162 7.93873 23.1725 7.68873 22.4688C7.54748 22.1088 6.93873 21 6.40748 20.7025C5.96998 20.4688 5.34498 19.89 6.39123 19.875C7.37623 19.8587 8.07873 20.7812 8.31373 21.1562C9.43873 23.0462 11.235 22.515 11.9537 22.1875C12.0637 21.375 12.3912 20.8288 12.7512 20.5163C9.96998 20.2038 7.06373 19.125 7.06373 14.3438C7.06373 12.9838 7.54748 11.86 8.34498 10.985C8.21998 10.6725 7.78248 9.39125 8.46998 7.6725C8.46998 7.6725 9.51623 7.34375 11.9075 8.9525C12.9252 8.6708 13.9765 8.52908 15.0325 8.53125C16.095 8.53125 17.1575 8.67125 18.1575 8.9525C20.5487 7.3275 21.595 7.6725 21.595 7.6725C22.2825 9.39125 21.845 10.6725 21.72 10.985C22.5162 11.86 23.0012 12.9688 23.0012 14.3438C23.0012 19.1413 20.08 20.2038 17.2987 20.5163C17.7512 20.9063 18.1425 21.6563 18.1425 22.8288C18.1425 24.5 18.1262 25.8438 18.1262 26.2663C18.1262 26.5938 18.3612 26.9837 18.9862 26.8587C21.4669 26.0201 23.6223 24.4251 25.1494 22.298C26.6766 20.1708 27.4986 17.6186 27.5 15C27.5 8.09375 21.9062 2.5 15 2.5" fill="black"/>
</svg>
