<svg width="30" height="41" viewBox="0 0 30 41" fill="none" xmlns="http://www.w3.org/2000/svg">
<g clip-path="url(#clip0_18_13)">
<path d="M9.67428 31.3445C9.67428 31.3445 8.12764 32.2439 10.775 32.5483C13.9823 32.9141 15.6214 32.8617 19.1559 32.1927C19.1559 32.1927 20.0852 32.7754 21.3828 33.2801C13.4597 36.6758 3.45092 33.0833 9.67428 31.3445ZM8.70608 26.9132C8.70608 26.9132 6.97135 28.1973 9.62072 28.4713C13.0468 28.8247 15.7524 28.8537 20.4343 27.9522C20.4343 27.9522 21.0819 28.6086 22.1001 28.9677C12.5204 31.769 1.85037 29.1886 8.70608 26.9132Z" fill="#5382A1"/>
<path d="M16.8682 19.3963C18.8205 21.644 16.3553 23.6666 16.3553 23.6666C16.3553 23.6666 21.3124 21.1076 19.0358 17.903C16.9096 14.9147 15.2789 13.4297 24.1063 8.31024C24.1063 8.31024 10.2503 11.7709 16.8682 19.3963Z" fill="#E76F00"/>
<path d="M27.3473 34.6221C27.3473 34.6221 28.4919 35.5651 26.0867 36.2947C21.5134 37.6802 7.05174 38.0986 3.03432 36.3499C1.59022 35.7218 4.29842 34.8499 5.15026 34.6669C6.03866 34.4742 6.54643 34.5102 6.54643 34.5102C4.94038 33.3787 -3.83439 36.7317 2.08932 37.6918C18.244 40.3117 31.5376 36.5122 27.3473 34.6221ZM10.418 22.3219C10.418 22.3219 3.06198 24.0691 7.81311 24.7035C9.81913 24.9721 13.8181 24.9114 17.5432 24.5992C20.5875 24.3425 23.6443 23.7964 23.6443 23.7964C23.6443 23.7964 22.5709 24.2562 21.7943 24.7864C14.3243 26.7511 -0.106422 25.8371 4.04799 23.8275C7.56139 22.1292 10.418 22.3219 10.418 22.3219ZM23.614 29.6979C31.2077 25.7519 27.6967 21.96 25.246 22.4709C24.6453 22.5959 24.3776 22.7041 24.3776 22.7041C24.3776 22.7041 24.6006 22.3549 25.0264 22.2037C29.8745 20.4993 33.603 27.2307 23.4614 29.8968C23.4614 29.8969 23.5789 29.7919 23.614 29.6979Z" fill="#5382A1"/>
<path d="M19.0358 0.0434827C19.0358 0.0434827 23.2413 4.25051 15.0471 10.7194C8.47628 15.9087 13.5487 18.8674 15.0444 22.2479C11.2089 18.7874 8.39402 15.741 10.2825 12.9057C13.0541 8.7436 20.7326 6.72587 19.0358 0.0434827Z" fill="#E76F00"/>
<path d="M11.1642 40.3904C18.4532 40.8571 29.6461 40.1316 29.9112 36.6826C29.9112 36.6826 29.4016 37.9902 23.8873 39.0285C17.666 40.1992 9.99305 40.0625 5.44208 39.3122C5.44219 39.3122 6.3736 40.0833 11.1642 40.3904Z" fill="#5382A1"/>
</g>
<defs>
<clipPath id="clip0_18_13">
<rect width="30" height="40.5469" fill="white"/>
</clipPath>
</defs>
</svg>
