<svg width="30" height="30" viewBox="0 0 30 30" fill="none" xmlns="http://www.w3.org/2000/svg">
<g clip-path="url(#clip0_10_278)">
<path d="M0.957892 12.025L17.975 29.0421C18.2235 29.2905 18.1036 29.7124 17.7582 29.7769C17.1764 29.8856 16.5887 29.9598 15.9981 29.9991C15.9351 30.003 15.872 29.9935 15.8129 29.9711C15.7539 29.9487 15.7004 29.9139 15.6559 29.8691L0.1309 14.3441C0.086105 14.2996 0.0513356 14.2461 0.0289217 14.1871C0.0065077 14.128 -0.0030331 14.0649 0.000938632 14.0019C0.0407824 13.4048 0.115548 12.8175 0.223126 12.2418C0.287579 11.8964 0.709454 11.7765 0.957892 12.025ZM0.47836 18.9151C0.364689 18.4916 0.865079 18.2244 1.17516 18.5345L11.4654 28.8248C11.7756 29.1349 11.5084 29.6352 11.0849 29.5216C5.92512 28.1382 1.86188 24.075 0.47836 18.9151ZM1.96969 7.51922C2.11418 7.26902 2.45567 7.23059 2.65992 7.43496L22.5652 27.3398C22.7695 27.5442 22.7312 27.8857 22.4808 28.0302C22.0583 28.2741 21.6242 28.4972 21.18 28.6987C21.0124 28.7749 20.8155 28.7365 20.6855 28.6062L1.39371 9.31488C1.26352 9.18457 1.22508 8.98793 1.30113 8.82023C1.50274 8.37603 1.7259 7.94192 1.96981 7.51945M14.9836 0C23.277 0 30 6.72305 30 15.0164C30 19.4191 28.1053 23.3791 25.0868 26.1258C24.9125 26.2845 24.6452 26.2739 24.4786 26.1074L3.89262 5.52141C3.72609 5.35477 3.71566 5.08746 3.8741 4.9132C6.62086 1.89469 10.581 0 14.9836 0Z" fill="#222326"/>
</g>
<defs>
<clipPath id="clip0_10_278">
<rect width="30" height="30" fill="white"/>
</clipPath>
</defs>
</svg>
