<svg width="30" height="19" viewBox="0 0 30 19" fill="none" xmlns="http://www.w3.org/2000/svg">
<path d="M14.8171 18.3454C14.7156 18.3454 14.6208 18.3183 14.5327 18.2709L13.6321 17.7359C13.4966 17.6614 13.5644 17.6343 13.605 17.6208C13.7878 17.5599 13.8217 17.5463 14.0113 17.438C14.0316 17.4244 14.0588 17.4312 14.079 17.4447L14.7698 17.8578C14.7969 17.8713 14.8307 17.8713 14.851 17.8578L17.5531 16.2935C17.5801 16.2799 17.5937 16.2528 17.5937 16.219V13.0971C17.5937 13.0632 17.5801 13.0362 17.5531 13.0226L14.851 11.465C14.8239 11.4515 14.7901 11.4515 14.7698 11.465L12.0678 13.0226C12.0407 13.0361 12.0271 13.07 12.0271 13.0971V16.2189C12.0271 16.2461 12.0407 16.2799 12.0678 16.2935L12.8059 16.7201C13.2055 16.9232 13.456 16.6862 13.456 16.4492V13.3679C13.456 13.3273 13.4899 13.2867 13.5373 13.2867H13.8826C13.9233 13.2867 13.9639 13.3205 13.9639 13.3679V16.4492C13.9639 16.9842 13.6727 17.2957 13.1648 17.2957C13.0091 17.2957 12.8872 17.2957 12.5418 17.1264L11.8307 16.7201C11.6547 16.6185 11.5463 16.4289 11.5463 16.2257V13.1039C11.5463 12.9007 11.6547 12.711 11.8307 12.6095L14.5327 11.0452C14.7021 10.9504 14.9323 10.9504 15.1016 11.0452L17.8036 12.6095C17.9797 12.711 18.0881 12.9007 18.0881 13.1039V16.2257C18.0881 16.4289 17.9797 16.6185 17.8036 16.7201L15.1016 18.2844C15.0136 18.3251 14.912 18.3454 14.8171 18.3454ZM15.6502 16.1987C14.4651 16.1987 14.2213 15.6569 14.2213 15.1964C14.2213 15.1557 14.2552 15.1151 14.3026 15.1151H14.6547C14.6953 15.1151 14.7292 15.1422 14.7292 15.1829C14.7834 15.5418 14.9391 15.7178 15.657 15.7178C16.2258 15.7178 16.4697 15.5892 16.4697 15.2844C16.4697 15.1083 16.4019 14.9797 15.5148 14.8917C14.7766 14.8171 14.3161 14.6547 14.3161 14.0655C14.3161 13.5169 14.7767 13.1919 15.5486 13.1919C16.4154 13.1919 16.8421 13.4899 16.8963 14.1399C16.8963 14.1603 16.8895 14.1806 16.876 14.2009C16.8624 14.2144 16.8421 14.228 16.8218 14.228H16.4696C16.4357 14.228 16.4019 14.2009 16.3951 14.167C16.3139 13.7946 16.1039 13.6727 15.5486 13.6727C14.9256 13.6727 14.8511 13.8894 14.8511 14.0519C14.8511 14.2483 14.9391 14.3092 15.7788 14.4176C16.6118 14.526 17.0046 14.6817 17.0046 15.2641C16.9978 15.86 16.5103 16.1987 15.6502 16.1987Z" fill="#539E43"/>
<path d="M6.43342 6.13548C6.43342 6.01361 6.36568 5.89841 6.25734 5.83748L3.38602 4.18513C3.33855 4.158 3.28441 4.14447 3.23027 4.13767H3.20314C3.149 4.13767 3.0948 4.158 3.0474 4.18513L0.176074 5.83748C0.0676758 5.89841 0 6.01355 0 6.13548L0.00679688 10.5779C0.00679688 10.6388 0.0406641 10.6998 0.0948047 10.7269C0.149004 10.7608 0.21668 10.7608 0.264141 10.7269L1.97068 9.75171C2.07902 9.69078 2.14676 9.57564 2.14676 9.45376V7.37474C2.14676 7.25287 2.21443 7.13773 2.32283 7.07679L3.0474 6.65691C3.1016 6.62304 3.16254 6.60945 3.22348 6.60945C3.28441 6.60945 3.34535 6.62304 3.39281 6.65691L4.11738 7.07679C4.22578 7.13773 4.29346 7.25281 4.29346 7.37474V9.45376C4.29346 9.57564 4.36119 9.69078 4.46953 9.75171L6.17607 10.7269C6.20244 10.7435 6.23296 10.7523 6.26411 10.7523C6.29527 10.7523 6.32578 10.7435 6.35215 10.7269C6.40635 10.6998 6.44021 10.6388 6.44021 10.5779L6.43342 6.13548ZM20.2348 0.0203467C20.1806 -0.00678223 20.1129 -0.00678223 20.0654 0.0203467C20.0113 0.0542139 19.9774 0.108354 19.9774 0.169292V4.57115C19.9774 4.61175 19.9571 4.65236 19.9165 4.67949C19.8759 4.69976 19.8352 4.69976 19.7946 4.67949L19.0768 4.2664C19.0241 4.23645 18.9646 4.22071 18.9041 4.22071C18.8435 4.22071 18.784 4.23645 18.7314 4.2664L15.86 5.92554C15.7517 5.98648 15.684 6.10162 15.684 6.22349V9.53498C15.684 9.65685 15.7517 9.77205 15.86 9.83298L18.7314 11.4921C18.784 11.5221 18.8435 11.5378 18.9041 11.5378C18.9646 11.5378 19.0241 11.5221 19.0768 11.4921L21.9481 9.83298C22.0564 9.77205 22.1242 9.65691 22.1242 9.53498V1.27994C22.1242 1.15126 22.0564 1.03619 21.9481 0.97519L20.2348 0.0203467ZM19.9707 8.44472C19.9707 8.47859 19.9571 8.50566 19.93 8.51919L18.9481 9.08802C18.9344 9.09473 18.9193 9.09822 18.9041 9.09822C18.8888 9.09822 18.8738 9.09473 18.86 9.08802L17.8781 8.51919C17.851 8.50566 17.8375 8.47179 17.8375 8.44472V7.30701C17.8375 7.27314 17.851 7.24607 17.8781 7.23253L18.86 6.66365C18.8738 6.65694 18.8888 6.65345 18.9041 6.65345C18.9193 6.65345 18.9344 6.65694 18.9481 6.66365L19.93 7.23253C19.9571 7.24601 19.9707 7.27994 19.9707 7.30701V8.44472ZM29.7901 7.27994C29.8985 7.219 29.9594 7.10386 29.9594 6.98193V6.17609C29.9594 6.05421 29.8917 5.93908 29.7901 5.87814L26.9391 4.2258C26.8864 4.19585 26.8269 4.1801 26.7664 4.1801C26.7058 4.1801 26.6463 4.19585 26.5937 4.2258L23.7223 5.88488C23.6139 5.94582 23.5463 6.06095 23.5463 6.18283V9.49437C23.5463 9.61625 23.614 9.73138 23.7223 9.79232L26.5733 11.4176C26.6817 11.4785 26.8104 11.4785 26.912 11.4176L28.6388 10.4561C28.693 10.4289 28.7269 10.368 28.7269 10.3071C28.7269 10.2461 28.693 10.1852 28.6388 10.1581L25.7539 8.49892C25.6997 8.46505 25.6659 8.41091 25.6659 8.34997V7.31386C25.6659 7.25292 25.6997 7.19199 25.7539 7.16486L26.6546 6.65017C26.681 6.63357 26.7115 6.62476 26.7426 6.62476C26.7738 6.62476 26.8043 6.63357 26.8307 6.65017L27.7314 7.16486C27.7856 7.19873 27.8194 7.25287 27.8194 7.31386V8.1265C27.8194 8.18744 27.8532 8.24837 27.9074 8.27544C27.9338 8.29204 27.9643 8.30085 27.9955 8.30085C28.0266 8.30085 28.0572 8.29204 28.0835 8.27544L29.7901 7.27994Z" fill="#333333"/>
<path d="M26.7223 7.12413C26.7324 7.1175 26.7441 7.11397 26.7562 7.11397C26.7682 7.11397 26.78 7.1175 26.7901 7.12413L27.3386 7.44241C27.3589 7.456 27.3724 7.47628 27.3724 7.50335V8.13997C27.3724 8.16704 27.3589 8.18737 27.3386 8.20091L26.7901 8.51919C26.78 8.52581 26.7682 8.52935 26.7562 8.52935C26.7441 8.52935 26.7324 8.52581 26.7223 8.51919L26.1738 8.20091C26.1535 8.18737 26.14 8.16704 26.14 8.13997V7.50341C26.14 7.47628 26.1534 7.45594 26.1738 7.44247L26.7223 7.12413Z" fill="#539E43"/>
<path d="M11.2348 4.23933C11.1821 4.20939 11.1226 4.19365 11.0621 4.19365C11.0015 4.19365 10.942 4.20939 10.8894 4.23933L8.03842 5.88482C7.93002 5.94575 7.86908 6.06089 7.86908 6.18277V9.48077C7.86908 9.60265 7.93681 9.71778 8.03842 9.77872L10.8894 11.4243C10.942 11.4543 11.0015 11.47 11.0621 11.47C11.1226 11.47 11.1821 11.4543 11.2348 11.4243L14.0858 9.77872C14.1942 9.71778 14.2552 9.60265 14.2552 9.48077V6.18282C14.2552 6.06095 14.1874 5.94581 14.0858 5.88487L11.2348 4.23933Z" fill="url(#paint0_linear_9_32)"/>
<mask id="mask0_9_32" style="mask-type:luminance" maskUnits="userSpaceOnUse" x="7" y="4" width="8" height="8">
<path d="M11.2348 4.23933C11.1821 4.20939 11.1226 4.19365 11.0621 4.19365C11.0015 4.19365 10.942 4.20939 10.8894 4.23933L8.03842 5.88482C7.93002 5.94575 7.86908 6.06089 7.86908 6.18277V9.48077C7.86908 9.60265 7.93681 9.71778 8.03842 9.77872L10.8894 11.4243C10.942 11.4543 11.0015 11.47 11.0621 11.47C11.1226 11.47 11.1821 11.4543 11.2348 11.4243L14.0858 9.77872C14.1942 9.71778 14.2552 9.60265 14.2552 9.48077V6.18282C14.2552 6.06095 14.1874 5.94581 14.0858 5.88487L11.2348 4.23933Z" fill="white"/>
</mask>
<g mask="url(#mask0_9_32)">
<path d="M14.0925 5.88487L11.228 4.23933C11.1999 4.2251 11.1704 4.21376 11.1399 4.20546L7.92999 9.70437C7.9566 9.73681 7.98871 9.76432 8.02486 9.78564L10.8894 11.4312C10.9707 11.4786 11.0655 11.4922 11.1535 11.465L14.1671 5.95267C14.1467 5.9256 14.1196 5.90515 14.0925 5.88487Z" fill="url(#paint1_linear_9_32)"/>
</g>
<mask id="mask1_9_32" style="mask-type:luminance" maskUnits="userSpaceOnUse" x="7" y="4" width="8" height="8">
<path d="M11.2348 4.23933C11.1821 4.20939 11.1226 4.19365 11.0621 4.19365C11.0015 4.19365 10.942 4.20939 10.8894 4.23933L8.03842 5.88482C7.93002 5.94575 7.86908 6.06089 7.86908 6.18277V9.48077C7.86908 9.60265 7.93681 9.71778 8.03842 9.77872L10.8894 11.4243C10.942 11.4543 11.0015 11.47 11.0621 11.47C11.1226 11.47 11.1821 11.4543 11.2348 11.4243L14.0858 9.77872C14.1942 9.71778 14.2552 9.60265 14.2552 9.48077V6.18282C14.2552 6.06095 14.1874 5.94581 14.0858 5.88487L11.2348 4.23933Z" fill="white"/>
</mask>
<g mask="url(#mask1_9_32)">
<path fill-rule="evenodd" clip-rule="evenodd" d="M14.0993 9.77877C14.1806 9.73137 14.2415 9.6501 14.2687 9.56209L11.1263 4.19865C11.0451 4.18512 10.957 4.19186 10.8826 4.23926L8.03833 5.87813L11.106 11.4718C11.1506 11.4645 11.194 11.4508 11.2347 11.4312L14.0993 9.77877Z" fill="url(#paint2_linear_9_32)"/>
<path fill-rule="evenodd" clip-rule="evenodd" d="M14.0993 9.77877L11.2415 11.4244C11.2012 11.4449 11.1577 11.4586 11.1129 11.465L11.1671 11.5666L14.3363 9.73143V9.69077L14.2551 9.5553C14.2415 9.6501 14.1806 9.73137 14.0993 9.77877Z" fill="url(#paint3_linear_9_32)"/>
<path fill-rule="evenodd" clip-rule="evenodd" d="M14.0993 9.77877L11.2415 11.4244C11.2012 11.4449 11.1577 11.4586 11.1129 11.465L11.1671 11.5666L14.3363 9.73143V9.69077L14.2551 9.5553C14.2415 9.6501 14.1806 9.73137 14.0993 9.77877Z" fill="url(#paint4_linear_9_32)"/>
</g>
<defs>
<linearGradient id="paint0_linear_9_32" x1="443.323" y1="131.435" x2="130.829" y2="622.459" gradientUnits="userSpaceOnUse">
<stop stop-color="#41873F"/>
<stop offset="0.3288" stop-color="#418B3D"/>
<stop offset="0.6352" stop-color="#419637"/>
<stop offset="0.9319" stop-color="#3FA92D"/>
<stop offset="1" stop-color="#3FAE2A"/>
</linearGradient>
<linearGradient id="paint1_linear_9_32" x1="277.852" y1="405.473" x2="1060.48" y2="-19.7347" gradientUnits="userSpaceOnUse">
<stop offset="0.1376" stop-color="#41873F"/>
<stop offset="0.4032" stop-color="#54A044"/>
<stop offset="0.7136" stop-color="#66B848"/>
<stop offset="0.9081" stop-color="#6CC04A"/>
</linearGradient>
<linearGradient id="paint2_linear_9_32" x1="-19.3066" y1="368.135" x2="640.411" y2="368.135" gradientUnits="userSpaceOnUse">
<stop offset="0.09192" stop-color="#6CC04A"/>
<stop offset="0.2864" stop-color="#66B848"/>
<stop offset="0.5968" stop-color="#54A044"/>
<stop offset="0.8624" stop-color="#41873F"/>
</linearGradient>
<linearGradient id="paint3_linear_9_32" x1="-323.681" y1="110.673" x2="336.03" y2="110.673" gradientUnits="userSpaceOnUse">
<stop offset="0.09192" stop-color="#6CC04A"/>
<stop offset="0.2864" stop-color="#66B848"/>
<stop offset="0.5968" stop-color="#54A044"/>
<stop offset="0.8624" stop-color="#41873F"/>
</linearGradient>
<linearGradient id="paint4_linear_9_32" x1="432.141" y1="-414.965" x2="265.01" y2="460.793" gradientUnits="userSpaceOnUse">
<stop stop-color="#41873F"/>
<stop offset="0.3288" stop-color="#418B3D"/>
<stop offset="0.6352" stop-color="#419637"/>
<stop offset="0.9319" stop-color="#3FA92D"/>
<stop offset="1" stop-color="#3FAE2A"/>
</linearGradient>
</defs>
</svg>
