<svg width="30" height="27" viewBox="0 0 30 27" fill="none" xmlns="http://www.w3.org/2000/svg">
<g clip-path="url(#clip0_10_200)">
<path d="M24.666 8.65123C24.3467 8.54171 24.0247 8.44024 23.7004 8.34689C23.7548 8.12424 23.805 7.90428 23.8495 7.68818C24.5805 4.13963 24.1027 1.28084 22.4704 0.339589C20.9053 -0.562755 18.3458 0.378144 15.7609 2.62779C15.5061 2.84989 15.257 3.0784 15.0138 3.3131C14.851 3.15704 14.6853 3.00401 14.5168 2.85408C11.8077 0.448691 9.09223 -0.565099 7.46168 0.378847C5.89805 1.284 5.43504 3.97146 6.09316 7.33451C6.15864 7.66759 6.23257 7.99894 6.31488 8.32826C5.93051 8.43748 5.55961 8.55373 5.20465 8.67748C2.0284 9.7849 0 11.5203 0 13.3204C0 15.1796 2.17758 17.0444 5.48578 18.1752C5.75399 18.2664 6.02443 18.351 6.29684 18.4289C6.20839 18.7836 6.12985 19.1407 6.06129 19.4997C5.43387 22.8044 5.92383 25.4284 7.48324 26.3278C9.09387 27.2566 11.7971 26.302 14.4293 24.001C14.6427 23.814 14.8515 23.6216 15.0553 23.4241C15.3187 23.6783 15.5891 23.925 15.8663 24.164C18.416 26.358 20.9341 27.244 22.492 26.3421C24.1011 25.4106 24.6241 22.5917 23.9452 19.1622C23.8917 18.8936 23.8317 18.6262 23.7653 18.3604C23.9551 18.3042 24.1414 18.2463 24.3231 18.1861C27.7623 17.0467 30 15.2045 30 13.3204C30 11.5138 27.9061 9.76662 24.666 8.65123ZM23.9201 16.9697C23.7559 17.0239 23.5879 17.0764 23.4162 17.1273C23.0365 15.9253 22.5241 14.6472 21.8971 13.3267C22.4954 12.0376 22.9881 10.7758 23.3571 9.5817C23.664 9.67053 23.9618 9.76416 24.2489 9.86295C27.0251 10.8187 28.7184 12.2317 28.7184 13.3204C28.7184 14.4801 26.8896 15.9856 23.9201 16.9697ZM22.688 19.4112C22.9882 20.9276 23.031 22.2987 22.8321 23.3706C22.6535 24.3337 22.2942 24.9758 21.8498 25.233C20.9045 25.7803 18.8827 25.069 16.7021 23.1926C16.4444 22.9703 16.1928 22.7409 15.9478 22.5047C16.7932 21.5802 17.638 20.5054 18.4625 19.3118C19.9129 19.1831 21.283 18.9726 22.5255 18.6854C22.5869 18.9324 22.641 19.1744 22.688 19.4112ZM10.2277 25.1385C9.30398 25.4646 8.56828 25.474 8.12355 25.2176C7.17727 24.6718 6.78387 22.5649 7.32047 19.7388C7.38426 19.4049 7.4573 19.0727 7.53949 18.7428C8.76832 19.0147 10.1285 19.2102 11.5822 19.3281C12.4124 20.4961 13.2816 21.5696 14.1575 22.5097C13.9714 22.6898 13.7808 22.8653 13.586 23.0361C12.422 24.0535 11.2556 24.7754 10.2277 25.1385ZM5.90039 16.9625C4.43754 16.4625 3.22945 15.8127 2.40141 15.1036C1.65727 14.4664 1.28168 13.8337 1.28168 13.3204C1.28168 12.228 2.91023 10.8347 5.62652 9.88767C5.95617 9.77283 6.30117 9.66443 6.65918 9.56271C7.03465 10.7838 7.52707 12.0606 8.12133 13.3516C7.51934 14.6618 7.01988 15.9589 6.64078 17.1944C6.39213 17.1232 6.14525 17.0459 5.90039 16.9625ZM7.35094 7.0883C6.78715 4.20701 7.16156 2.03353 8.10387 1.48803C9.10746 0.907011 11.3268 1.73541 13.6659 3.81244C13.8185 3.94818 13.9685 4.08668 14.1161 4.22787C13.2444 5.16385 12.3832 6.22943 11.5604 7.39053C10.1495 7.52131 8.79891 7.73131 7.55719 8.01267C7.48067 7.70637 7.4119 7.39807 7.35094 7.0883ZM20.2916 10.2839C19.9983 9.77728 19.6941 9.27705 19.3793 8.78353C20.3365 8.90459 21.2536 9.06525 22.1148 9.26166C21.8563 10.0904 21.534 10.9568 21.1547 11.8451C20.8774 11.319 20.5897 10.7985 20.2916 10.2839ZM15.0144 5.14392C15.6055 5.78435 16.1975 6.49932 16.7798 7.2751C15.5986 7.2193 14.4154 7.21907 13.2341 7.27439C13.817 6.50576 14.4141 5.79174 15.0144 5.14392ZM9.70336 10.2926C9.40902 10.803 9.12664 11.3203 8.85645 11.8439C8.48332 10.9588 8.16398 10.0884 7.90324 9.24795C8.75918 9.05646 9.67195 8.8999 10.623 8.78107C10.3047 9.27761 9.99807 9.78165 9.70336 10.2926ZM10.6504 17.9509C9.66774 17.8412 8.74125 17.6927 7.88555 17.5064C8.15039 16.6509 8.47676 15.762 8.85797 14.8579C9.12923 15.382 9.41279 15.8995 9.7084 16.4102C10.0124 16.9352 10.3271 17.4494 10.6504 17.9509ZM15.0498 21.5872C14.4423 20.9319 13.8364 20.2069 13.2448 19.4271C13.8192 19.4496 14.4048 19.4611 15 19.4611C15.6115 19.4611 16.2159 19.4474 16.8109 19.4209C16.2267 20.2147 15.6369 20.9408 15.0498 21.5872ZM21.1668 14.8118C21.5678 15.7258 21.9057 16.61 22.1741 17.4508C21.3043 17.6494 20.3652 17.8092 19.3757 17.9279C19.6928 17.4252 19.9998 16.9163 20.2966 16.4014C20.5985 15.8781 20.8886 15.3481 21.1668 14.8118ZM19.1865 15.7611C18.7321 16.5505 18.2521 17.3249 17.7473 18.0832C16.833 18.148 15.9166 18.1801 15 18.1796C14.0664 18.1796 13.1583 18.1506 12.2838 18.0938C11.7659 17.3374 11.2767 16.5616 10.8175 15.7681C10.3603 14.9789 9.93342 14.1726 9.53754 13.3509C9.93243 12.5291 10.3581 11.7224 10.8137 10.9325L10.8136 10.9326C11.269 10.1426 11.7542 9.37009 12.2682 8.61689C13.1604 8.54939 14.0753 8.51424 14.9999 8.51424C15.9287 8.51424 16.8449 8.54975 17.7368 8.61771C18.2457 9.36979 18.7278 10.1396 19.1823 10.9257C19.6393 11.7139 20.0707 12.5166 20.4756 13.3328C20.0748 14.1572 19.6449 14.9672 19.1865 15.7611ZM21.8303 1.44971C22.8348 2.02908 23.2255 4.36545 22.5943 7.42932C22.5539 7.62494 22.5089 7.82377 22.4596 8.0258C21.2148 7.73846 19.8633 7.52482 18.4482 7.39205C17.6239 6.21818 16.7698 5.15096 15.9123 4.22705C16.137 4.01044 16.3671 3.79943 16.6023 3.59424C18.8171 1.66685 20.8871 0.905839 21.8303 1.44971ZM15 10.6415C16.4795 10.6415 17.6789 11.841 17.6789 13.3204C17.6789 14.7999 16.4795 15.9994 15 15.9994C13.5205 15.9994 12.3211 14.7999 12.3211 13.3204C12.3211 11.841 13.5205 10.6415 15 10.6415Z" fill="#00D8FF"/>
</g>
<defs>
<clipPath id="clip0_10_200">
<rect width="30" height="26.7188" fill="white"/>
</clipPath>
</defs>
</svg>
