<svg width="30" height="30" viewBox="0 0 30 30" fill="none" xmlns="http://www.w3.org/2000/svg">
<g clip-path="url(#clip0_10_266)">
<path d="M6.38788 18.9185C6.38788 20.6365 4.98678 22.0397 3.26858 22.0397C1.55038 22.0397 0.147644 20.6365 0.147644 18.9185C0.147644 17.2005 1.55085 15.7973 3.26882 15.7973H6.38811L6.38788 18.9185ZM7.9603 18.9185C7.9603 17.2005 9.3635 15.7973 11.0815 15.7973C12.7994 15.7973 14.2026 17.2003 14.2026 18.9185V26.7314C14.2026 28.4494 12.7997 29.8526 11.0815 29.8526C9.3635 29.8526 7.9603 28.4494 7.9603 26.7314V18.9185Z" fill="#DE1C59"/>
<path d="M11.0815 6.38788C9.3635 6.38788 7.9603 4.98678 7.9603 3.26858C7.9603 1.55038 9.3635 0.147644 11.0815 0.147644C12.7994 0.147644 14.2026 1.55085 14.2026 3.26882V6.38811L11.0815 6.38788ZM11.0815 7.9603C12.7994 7.9603 14.2026 9.3635 14.2026 11.0815C14.2026 12.7994 12.7997 14.2026 11.0815 14.2026H3.26858C1.55061 14.2026 0.147644 12.7997 0.147644 11.0815C0.147644 9.3635 1.55085 7.9603 3.26882 7.9603H11.0815Z" fill="#35C5F0"/>
<path d="M23.6121 11.0815C23.6121 9.3635 25.0132 7.9603 26.7314 7.9603C28.4496 7.9603 29.8526 9.3635 29.8526 11.0815C29.8526 12.7994 28.4494 14.2026 26.7314 14.2026H23.6121V11.0815ZM22.0397 11.0815C22.0397 12.7994 20.6365 14.2026 18.9185 14.2026C17.2005 14.2026 15.7973 12.7997 15.7973 11.0815V3.26858C15.7973 1.55061 17.2003 0.147644 18.9185 0.147644C20.6365 0.147644 22.0397 1.55085 22.0397 3.26882V11.0815Z" fill="#2EB57D"/>
<path d="M18.9185 23.6121C20.6365 23.6121 22.0397 25.0132 22.0397 26.7314C22.0397 28.4496 20.6365 29.8526 18.9185 29.8526C17.2005 29.8526 15.7973 28.4494 15.7973 26.7314V23.6121H18.9185ZM18.9185 22.0397C17.2005 22.0397 15.7973 20.6365 15.7973 18.9185C15.7973 17.2005 17.2003 15.7973 18.9185 15.7973H26.7314C28.4494 15.7973 29.8526 17.2003 29.8526 18.9185C29.8526 20.6365 28.4494 22.0397 26.7314 22.0397H18.9185Z" fill="#EBB02E"/>
</g>
<defs>
<clipPath id="clip0_10_266">
<rect width="30" height="30" fill="white"/>
</clipPath>
</defs>
</svg>
