<svg width="30" height="30" viewBox="0 0 30 30" fill="none" xmlns="http://www.w3.org/2000/svg">
<path d="M8.02689 14.3025C10.2659 15.0886 12.6275 15.4674 15 15.4209C17.3726 15.4671 19.7342 15.088 21.9731 14.3016C23.7206 13.62 24.3403 12.8625 24.3403 12.4266V9.09375C23.7292 9.50259 23.0738 9.841 22.3866 10.1025C20.0179 10.9505 17.5156 11.364 15 11.3231C12.4847 11.3626 9.98276 10.9498 7.61345 10.1044C6.92583 9.84302 6.27033 9.50394 5.6597 9.09375V12.4219C5.6597 12.8663 6.28126 13.62 8.02689 14.3025ZM8.02689 20.5884C8.81775 20.8901 9.63331 21.1225 10.4644 21.2831C11.9589 21.5716 13.4779 21.7139 15 21.7078C16.5221 21.7142 18.0411 21.5723 19.5356 21.2841C20.3667 21.1235 21.1823 20.891 21.9731 20.5894C23.7206 19.9078 24.3403 19.1503 24.3403 18.7144V15.5363C23.8353 15.8402 23.3045 16.099 22.7541 16.3097C20.2657 17.1905 17.6393 17.617 15 17.5688C12.3605 17.6155 9.73404 17.1874 7.24595 16.305C6.69607 16.093 6.16538 15.8342 5.6597 15.5316V18.7125C5.6597 19.1494 6.28126 19.9041 8.02689 20.5884ZM15 28.125C20.1563 28.125 24.3403 26.49 24.3403 24.4744V21.8147C23.8809 22.0916 23.3996 22.3305 22.9013 22.5291L22.7541 22.5881C20.2662 23.4715 17.6397 23.9005 15 23.8547C12.3602 23.9026 9.73336 23.4735 7.24595 22.5881L7.09876 22.5291C6.60041 22.3305 6.11912 22.0916 5.6597 21.8147V24.4744C5.6597 26.49 9.84376 28.125 15 28.125Z" fill="#FFDA44"/>
<path d="M15 9.17625C20.1585 9.17625 24.3403 7.54181 24.3403 5.52562C24.3403 3.50944 20.1585 1.875 15 1.875C9.8415 1.875 5.6597 3.50944 5.6597 5.52562C5.6597 7.54181 9.8415 9.17625 15 9.17625Z" fill="#FFDA44"/>
</svg>
