<svg width="30" height="30" viewBox="0 0 30 30" fill="none" xmlns="http://www.w3.org/2000/svg">
<g clip-path="url(#clip0_18_6)">
<path d="M25.882 3.96937C23.0984 -0.0178154 17.5992 -1.19953 13.6242 1.335L6.64173 5.78812C5.69688 6.38095 4.88615 7.16446 4.26141 8.08853C3.63667 9.0126 3.21168 10.0569 3.01361 11.1546C2.92531 11.6473 2.88037 12.1497 2.87955 12.6537C2.8838 14.0203 3.21855 15.3655 3.85525 16.5748C3.25838 17.4824 2.85109 18.5013 2.65783 19.5703C2.45979 20.6878 2.48752 21.8462 2.73869 22.9481C2.99013 24.0573 3.46024 25.1053 4.1215 26.0306C6.90541 30.0173 12.417 31.1993 16.3793 28.665L23.3548 24.2116C24.299 23.618 25.1087 22.8335 25.7318 21.9085C26.355 20.9835 26.7777 19.9383 26.9731 18.8402C27.0628 18.3464 27.1077 17.8454 27.1071 17.3435C27.1053 15.9796 26.7748 14.6361 26.1434 13.4271C26.7402 12.5203 27.1477 11.5023 27.3415 10.4341C27.428 9.93961 27.472 9.43922 27.4732 8.93742C27.4738 7.15746 26.9176 5.4219 25.8825 3.97382L25.882 3.96937Z" fill="#FF3E00"/>
<path d="M12.942 26.4052C12.4833 26.5234 12.0156 26.5831 11.5465 26.5833C10.6508 26.5831 9.76847 26.3659 8.97514 25.95C8.18182 25.5342 7.50113 24.9322 6.99141 24.1957C6.36903 23.3245 6.03468 22.2805 6.03516 21.2098C6.03556 20.9079 6.06171 20.6069 6.1132 20.3114C6.15515 20.0891 6.21158 19.8711 6.28195 19.6594L6.41344 19.2591L6.76969 19.53C7.5966 20.137 8.52048 20.5994 9.50203 20.8974L9.76078 20.9754L9.73641 21.2342V21.3684C9.73591 21.6922 9.83653 22.008 10.0242 22.2717C10.1759 22.4962 10.3801 22.6803 10.6191 22.808C10.8638 22.9371 11.1281 23.0039 11.3953 23.0042C11.5364 23.0047 11.677 22.9867 11.8148 22.9505C11.9644 22.9113 12.1089 22.8481 12.2445 22.7625L19.2195 18.2874C19.4286 18.1545 19.6007 17.9709 19.7197 17.7536C19.8387 17.5363 19.9008 17.2924 19.9001 17.0447C19.8981 16.7209 19.7948 16.4059 19.6048 16.1438C19.4508 15.9222 19.2455 15.7411 19.0064 15.6159C18.7616 15.4896 18.4978 15.425 18.2313 15.4261C18.0903 15.4256 17.9496 15.4437 17.8118 15.48C17.6628 15.5182 17.5191 15.5814 17.3848 15.6677L14.7255 17.367C14.278 17.6489 13.8014 17.8583 13.308 17.9895C12.2095 18.2755 11.0497 18.2172 9.98535 17.8225C8.92104 17.4278 8.00364 16.7157 7.35727 15.7826C6.73546 14.9111 6.40116 13.8672 6.40102 12.7967C6.40149 12.4955 6.42773 12.195 6.47906 11.8983C6.59833 11.2385 6.85338 10.6108 7.22803 10.0547C7.60268 9.49874 8.08877 9.02664 8.65547 8.66837L15.638 4.21759C16.0761 3.93871 16.5541 3.72795 17.0555 3.59251C17.5114 3.47576 17.9803 3.41671 18.4509 3.41673C19.3485 3.41483 20.2331 3.63065 21.029 4.04567C21.8248 4.4607 22.5081 5.06255 23.0203 5.79962C23.6383 6.6732 23.9684 7.71782 23.9646 8.7879C23.9641 9.09064 23.9379 9.39252 23.8863 9.68884C23.8445 9.91108 23.7883 10.129 23.718 10.3406L23.5863 10.7409L23.2301 10.4799C22.4039 9.87168 21.4798 9.40923 20.4977 9.11251L20.239 9.03212L20.2634 8.77314V8.63907C20.2633 8.31464 20.1628 7.99819 19.9755 7.73321C19.822 7.51161 19.6169 7.33064 19.3779 7.20587C19.1336 7.07952 18.8704 7.01467 18.6045 7.01532C18.4647 7.01833 18.3256 7.03963 18.1896 7.07884C18.0398 7.11647 17.8953 7.17977 17.7605 7.26681L10.7777 11.7176C10.6122 11.821 10.4658 11.9637 10.3474 12.1371C10.237 12.299 10.1597 12.4899 10.1217 12.6942C10.1045 12.7791 10.0938 12.8657 10.0898 12.953C10.0897 13.2759 10.1903 13.5909 10.3777 13.8539C10.5311 14.0755 10.7362 14.2565 10.9751 14.3813C11.2194 14.5076 11.4828 14.5724 11.7488 14.5716C11.8898 14.5721 12.0305 14.554 12.1683 14.5177C12.3181 14.4797 12.4627 14.4165 12.5979 14.3299L15.262 12.6209C15.7094 12.3384 16.1861 12.1291 16.6795 11.9984C17.1382 11.8803 17.6059 11.8206 18.075 11.8202C18.9709 11.8201 19.8534 12.037 20.6471 12.4524C21.4409 12.8678 22.1221 13.4693 22.6327 14.2055C23.0308 14.7634 23.3134 15.3953 23.4638 16.064C23.6142 16.7327 23.6294 17.4247 23.5085 18.0994C23.3899 18.7594 23.1352 19.3874 22.7604 19.9435C22.3857 20.4996 21.8993 20.9716 21.3321 21.3293L14.3618 25.7801C13.9138 26.0634 13.4361 26.2736 12.942 26.4052Z" fill="white"/>
</g>
<defs>
<clipPath id="clip0_18_6">
<rect width="30" height="30" fill="white"/>
</clipPath>
</defs>
</svg>
