<svg width="30" height="30" viewBox="0 0 30 30" fill="none" xmlns="http://www.w3.org/2000/svg">
<g clip-path="url(#clip0_10_156)">
<path d="M15.0009 6.00047C11.0008 6.00047 8.5017 7.99969 7.50092 11.9998C9.00045 10.0003 10.751 9.25055 12.7504 9.75047C13.8921 10.035 14.7079 10.8628 15.6115 11.7802C17.0819 13.2724 18.784 15 22.5009 15C26.5008 15 29.0001 13.0006 30.0009 8.99954C28.5009 11 26.751 11.7502 24.7512 11.25C23.6097 10.9652 22.7948 10.1377 21.8901 9.22032C20.4206 7.72805 18.719 6.00047 15.0009 6.00047ZM7.50092 15C3.50107 15 1.0017 16.9995 0.000915527 21.0005C1.50076 19 3.2506 18.2498 5.25045 18.75C6.39209 19.0348 7.20795 19.8623 8.11146 20.7797C9.58193 22.272 11.284 23.9995 15.0009 23.9995C19.0008 23.9995 21.5001 22.0003 22.5009 18.0002C21.0009 19.9998 19.251 20.7495 17.2512 20.2495C16.1097 19.965 15.2948 19.1372 14.3901 18.2198C12.9206 16.7276 11.219 15 7.50092 15Z" fill="#38BDF8"/>
</g>
<defs>
<clipPath id="clip0_10_156">
<rect width="30" height="30" fill="white"/>
</clipPath>
</defs>
</svg>
